<svg width="190" height="44" viewBox="0 0 190 44" fill="none" xmlns="http://www.w3.org/2000/svg">
<path d="M87.692 20.863V16.988H102.924V20.863H97.653V34.7H92.963V20.863H87.693H87.692ZM109.506 27.228V34.701H104.783V16.988H109.335V23.942H109.472C109.769 23.094 110.262 22.434 110.952 21.962C111.643 21.482 112.473 21.243 113.443 21.243C114.372 21.243 115.18 21.457 115.864 21.883C116.553 22.3085 117.108 22.9204 117.464 23.648C117.847 24.398 118.035 25.256 118.029 26.225V34.701H113.306V27.228C113.311 26.571 113.149 26.055 112.818 25.68C112.493 25.305 112.028 25.118 111.423 25.118C110.847 25.118 110.385 25.305 110.037 25.68C109.689 26.055 109.512 26.571 109.506 27.228V27.228ZM126.659 34.943C124.554 34.943 122.897 34.341 121.687 33.136C120.484 31.925 119.882 30.244 119.882 28.093C119.882 26.721 120.155 25.522 120.703 24.495C121.23 23.4906 122.035 22.6592 123.022 22.1C124.02 21.529 125.198 21.243 126.556 21.243C127.88 21.243 129.029 21.517 130.005 22.065C130.98 22.6062 131.772 23.4248 132.281 24.417C132.823 25.432 133.094 26.646 133.094 28.059V29.166H124.537V29.373C124.537 30.013 124.731 30.543 125.119 30.965C125.512 31.38 126.06 31.587 126.761 31.587C127.246 31.587 127.669 31.487 128.028 31.285C128.393 31.077 128.644 30.785 128.781 30.411H133.094C132.871 31.795 132.198 32.896 131.074 33.715C129.956 34.534 128.484 34.943 126.659 34.943V34.943ZM124.537 26.536H128.747C128.735 25.966 128.53 25.501 128.131 25.144C127.737 24.781 127.246 24.599 126.659 24.599C126.114 24.5877 125.583 24.7787 125.17 25.135C124.759 25.493 124.548 25.96 124.537 26.536ZM150.159 16.988H154.882V28.681C154.882 30.031 154.568 31.169 153.941 32.098C153.319 33.02 152.44 33.721 151.305 34.199C150.176 34.672 148.846 34.909 147.318 34.909C145.777 34.909 144.44 34.672 143.304 34.199C142.175 33.721 141.299 33.02 140.677 32.098C140.061 31.169 139.753 30.031 139.753 28.681V16.988H144.511V28.474C144.511 29.131 144.759 29.664 145.255 30.074C145.757 30.484 146.445 30.688 147.318 30.688C148.208 30.688 148.904 30.483 149.406 30.074C149.908 29.664 150.159 29.131 150.159 28.474V16.988V16.988ZM166.59 22.523C166.544 21.947 166.331 21.497 165.948 21.174C165.572 20.851 164.999 20.69 164.228 20.69C163.492 20.69 162.956 20.817 162.62 21.07C162.283 21.324 162.112 21.647 162.106 22.039C162.083 22.459 162.263 22.803 162.645 23.069C163.033 23.334 163.641 23.555 164.468 23.734L165.906 24.046C167.839 24.466 169.234 25.141 170.09 26.069C170.946 26.992 171.376 28.128 171.382 29.477C171.376 31.224 170.743 32.567 169.482 33.507C168.222 34.441 166.482 34.909 164.263 34.909C162.739 34.909 161.41 34.681 160.275 34.225C159.146 33.77 158.267 33.069 157.639 32.124C157.018 31.172 156.704 29.956 156.698 28.474H161.216C161.256 29.287 161.533 29.907 162.046 30.334C162.565 30.754 163.281 30.964 164.194 30.964C164.959 30.964 165.535 30.826 165.923 30.549C166.316 30.273 166.516 29.915 166.522 29.477C166.516 29.073 166.319 28.739 165.931 28.474C165.543 28.203 164.862 27.961 163.886 27.747L162.14 27.367C160.589 27.027 159.365 26.459 158.47 25.663C157.58 24.861 157.137 23.769 157.143 22.385C157.137 21.261 157.434 20.277 158.033 19.435C158.638 18.588 159.474 17.928 160.54 17.455C161.613 16.982 162.842 16.745 164.228 16.745C165.643 16.745 166.867 16.985 167.899 17.464C168.932 17.942 169.728 18.617 170.287 19.488C170.852 20.352 171.137 21.364 171.142 22.523H166.59V22.523ZM177.062 34.701H171.928L177.712 16.988H184.215L190 34.701H184.866L183.856 31.311H178.072L177.062 34.701ZM179.15 27.713H182.778L181.032 21.866H180.895L179.15 27.713ZM72.86 5.473V5.911L71.544 7.075L70.894 7.054L70.401 7.316L70.535 7.843V8.216L69.39 8.766L69.19 9.535V10.983L70.088 12.035L69.976 12.475L69.032 12.848V13.439L68.353 13.797L67.907 14.032H67.166L65.999 15.196L66.179 15.372L66.382 16.688L65.618 18.403L65.327 18.358L65.26 17.874L64.534 17.834L65.033 18.687L65.618 19.367L65.371 20.377L64.966 21.025H64.57L64.63 20.289L64.287 19.76L63.785 19.503L63.733 18.839L63.891 18.005L63.646 17.851L63.083 18.422L63.286 18.839L63.332 19.762L63.692 19.938L64.072 20.641L64.155 21.023L64.205 21.255L64.047 21.76L64.632 21.805L65.082 21.998L64.969 22.55L65.35 22.791L65.329 23.01L64.946 23.361L65.619 23.867V24.525L65.102 24.832L65.416 25.381L65.193 25.931L63.417 26.215V26.895L62.902 27.862L62.07 28.039L61.943 28.251L61.464 29.047L61.488 29.487L60.411 30.605H59.958L59.598 31.374L59.014 31.681L59.004 31.865L58.858 34.14L59.284 34.69L59.465 35.457L59.489 35.478L59.938 35.853V36.447L61.014 37.347L61.126 38.358L61.53 39.096L62.317 40.532V42.71H60.655V42.685C60.591 42.524 60.183 42.175 60.183 42.175L59.556 42.223V41.476H59.128L58.948 41.192V40.775L58.588 40.752L57.872 39.939L57.962 39.479L57.603 39.523L57.422 39.194L57.445 39.097L57.603 38.426L57.489 37.285L57.108 37.153L55.964 35.923L54.996 35.856L53.853 36.514L53.403 36.624L52.707 35.616L50.851 35.482L50.574 35.462L50.546 35.482L49.968 35.9L49.654 35.55L49.256 35.894L47.588 35.9V36.603L47.274 37.02L48.127 37.877L47.655 38.161L46.51 37.634L45.902 38.339L44.871 38.335L44.581 37.347L43.389 37.019V37.524L43.144 37.679L41.504 37.262H40.808L38.584 38.227V38.667L37.688 39.258L36.698 39.457L36.339 39.984L35.845 40.028L35.577 40.642L35.241 40.731L35.263 42.005C35.2 42.215 35.209 42.466 35.246 42.709C35.331 43.258 35.576 43.782 35.576 43.782L35.284 44L34.074 43.649C33.292 43.501 32.812 43.092 32.524 42.709C32.3403 42.4724 32.2026 42.2034 32.118 41.916C32.029 41.322 31.895 41.104 31.895 41.104C31.155 40.687 30.592 39.15 30.592 39.15C30.585 39.13 30.577 39.114 30.568 39.097C30.031 37.837 29.267 37.219 29.267 37.219H28.527L28.303 36.977L27.045 36.933V37.79L26.259 38.381C25.091 38.097 24.265 36.679 24.265 36.679L24.305 35.902L21.746 32.872L19.365 32.697L19.165 33.598L14.919 33.093L10.047 30.216V29.448H6.626L6.515 28.256L6.468 27.736L5.883 27.518V26.86H5.344L5.262 26.386L4.807 26.267L3.952 25.237L2.83 25.105L2.449 24.798L2.501 24.645L2.502 24.643L2.672 24.159L2.538 23.919L2.424 23.634L2.581 23.238L1.864 21.504L1.661 21.327V21.064L1.975 20.736V20.407L1.458 19.813L1.503 18.517L1.031 18.012L1.077 17.309L0.551 16.532L0.605 15.492L0.762 14.828L0 13.99L0.428 13.419L1.213 12.168L1.123 11.554L1.347 11.158L1.437 9.578L2.876 7.03V6.459L3.116 6.115L3.325 5.822L3.775 4.418V4.024L4.18 3.562L3.933 3.122L3.961 2.406L4.336 2.05L3.977 2L3.999 1.475L3.775 1.365V1.015L4 0.425H4.314L4.517 0.952L5.257 1.237L6.044 1.369V1.897L5.708 2.359L5.258 2.511L5.348 3.214H5.998L6.448 2.687V2.07L6.628 1.851L6.268 1.391L6.528 0.95L6.628 0.71L6.425 0.512L6.626 0L9.408 0.839L12.846 1.739L14.024 1.993L14.172 2.024L20.032 2.947L20.16 2.964L21.591 3.131L28.864 3.991L35.189 4.264L38.153 4.069V3.497L38.761 3.847V4.571L40.019 5.011L40.379 4.615L41.32 4.922L41.59 5.362L42.628 6.112L43.846 6.722L42.019 8.556L43.114 8.216V8.946L44.455 8.556L45.295 7.846L45.673 7.333H46.283L45.673 8.216H46.283L46.891 8.556H48.109L49.327 8.216L49.745 8.679H50.192L50.545 9.167L47.5 9.777L46.891 11V16.5L48.109 15.889V13.662L48.269 11.928L49.745 10.009H50.748L51.292 10.544L51.762 11L51.292 12.653L52.372 12.434L52.981 13.444L52.371 14.667V15.889H54.2L54.64 15.653V15.002L55.829 13.662L56.929 13.728L57.896 12.983L58.568 13.004L58.748 12.653L58.591 12.345L57.873 12.435L57.76 11.928L58.477 11.248L59.69 10.613L60.635 10.656L60.499 10.239L62.003 9.625L62.34 8.945L63.284 8.132L66.876 7.318L67.1 6.728L67.654 6.576L67.659 6.574L67.795 6.312L67.817 5.894L68.133 5.784L68.109 5.324L67.84 4.773L68.212 2.962H70.686L71.276 4.773L71.816 4.796L71.88 5.361L72.86 5.473V5.473Z" fill="white"/>
</svg>
